<svg width="80" height="61" viewBox="0 0 80 61" fill="none" xmlns="http://www.w3.org/2000/svg">
<path d="M38.1758 22.0586C39.3211 21.4717 40.6789 21.4717 41.8242 22.0586L70.8613 36.9404C73.7622 38.4271 73.7622 42.5729 70.8613 44.0596L41.8242 58.9414C40.6789 59.5283 39.3211 59.5283 38.1758 58.9414L9.13867 44.0596C6.23782 42.5729 6.23782 38.4271 9.13867 36.9404L38.1758 22.0586Z" stroke="#5528FF" stroke-width="2"/>
<path d="M38.1758 12.0586C39.3211 11.4717 40.6789 11.4717 41.8242 12.0586L70.8613 26.9404C73.7622 28.4271 73.7622 32.5729 70.8613 34.0596L41.8242 48.9414C40.6789 49.5283 39.3211 49.5283 38.1758 48.9414L9.13867 34.0596C6.23782 32.5729 6.23782 28.4271 9.13867 26.9404L38.1758 12.0586Z" fill="white" stroke="#5528FF" stroke-width="2"/>
<path d="M38.1758 2.05859C39.3211 1.47167 40.6789 1.47167 41.8242 2.05859L70.8613 16.9404C73.7622 18.4271 73.7622 22.5729 70.8613 24.0596L41.8242 38.9414C40.6789 39.5283 39.3211 39.5283 38.1758 38.9414L9.13867 24.0596C6.23782 22.5729 6.23782 18.4271 9.13867 16.9404L38.1758 2.05859Z" fill="white" stroke="#5528FF" stroke-width="2"/>
</svg>
