<svg width="40" height="60" viewBox="0 0 40 60" fill="none" xmlns="http://www.w3.org/2000/svg">
<path fill-rule="evenodd" clip-rule="evenodd" d="M5 0C2.23859 0 0 2.23853 0 5V55C0 57.7615 2.23859 60 5 60H27.929C29.255 60 30.5267 59.4731 31.4645 58.5356L38.5355 51.4644C39.4733 50.5269 40 49.2551 40 47.929V5C40 2.23853 37.7615 0 35 0H5ZM7 58C4.23859 58 2 55.7615 2 53V7C2 4.23853 4.23859 2 7 2H33C35.7615 2 38 4.23853 38 7V47.1006C38 47.4048 37.9723 47.7061 37.9182 48.0012H28.9716C28.4193 48.0012 27.9716 48.449 27.9716 49.0012V57.9236C27.6859 57.9741 27.3945 58 27.1005 58H7ZM29.9939 57.0779C30.2213 56.9165 30.4363 56.7354 30.636 56.5356L36.5355 50.636C36.7334 50.438 36.913 50.2253 37.0732 50.0002L30.9746 50.001C30.4211 50.0012 29.973 50.4507 29.9747 51.0042L29.9939 57.0779ZM17 11C17 10.4478 17.4478 10 18 10H32C32.5522 10 33 10.4478 33 11C33 11.5522 32.5522 12 32 12H18C17.4478 12 17 11.5522 17 11ZM17 19.0005C16.4478 19.0005 16 19.4482 16 20.0005C16 20.5527 16.4478 21.0005 17 21.0005H32C32.5522 21.0005 33 20.5527 33 20.0005C33 19.4482 32.5522 19.0005 32 19.0005H17ZM16 30C16 29.4478 16.4478 29 17 29H32C32.5522 29 33 29.4478 33 30C33 30.5522 32.5522 31 32 31H17C16.4478 31 16 30.5522 16 30ZM17 38.9985C16.4478 38.9985 16 39.4463 16 39.9985C16 40.5508 16.4478 40.9985 17 40.9985H32C32.5522 40.9985 33 40.5508 33 39.9985C33 39.4463 32.5522 38.9985 32 38.9985H17ZM9.12158 13.6799L9.1283 13.6868C9.17712 13.7356 9.22968 13.7783 9.28516 13.8149C9.67334 14.0713 10.2008 14.0286 10.5425 13.6868L16.1993 8.03003C16.5898 7.6394 16.5898 7.00635 16.1993 6.61572C15.8088 6.22534 15.1757 6.22534 14.7852 6.61572L9.83545 11.5654L7.71411 9.44409C7.32361 9.05371 6.69043 9.05371 6.29993 9.44409C5.90936 9.83472 5.90936 10.4678 6.29993 10.8584L9.12158 13.6799ZM8.00702 18.0161H12.007V22.0161H8.00702V18.0161ZM6.00702 18.0161C6.00702 16.9116 6.90247 16.0161 8.00702 16.0161H12.007C13.1116 16.0161 14.0071 16.9116 14.0071 18.0161V22.0161C14.0071 23.1206 13.1116 24.0161 12.007 24.0161H8.00702C6.90247 24.0161 6.00702 23.1206 6.00702 22.0161V18.0161ZM12.007 28H8.00702V32H12.007V28ZM8.00702 26C6.90247 26 6.00702 26.8955 6.00702 28V32C6.00702 33.1045 6.90247 34 8.00702 34H12.007C13.1116 34 14.0071 33.1045 14.0071 32V28C14.0071 26.8955 13.1116 26 12.007 26H8.00702ZM8.01483 37.9985H12.0148V41.9985H8.01483V37.9985ZM6.01483 37.9985C6.01483 36.894 6.91028 35.9985 8.01483 35.9985H12.0148C13.1194 35.9985 14.0149 36.894 14.0149 37.9985V41.9985C14.0149 43.103 13.1194 43.9985 12.0148 43.9985H8.01483C6.91028 43.9985 6.01483 43.103 6.01483 41.9985V37.9985ZM16 50.0005C16 49.4482 16.4478 49.0005 17 49.0005H25C25.5522 49.0005 26 49.4482 26 50.0005C26 50.5527 25.5522 51.0005 25 51.0005H17C16.4478 51.0005 16 50.5527 16 50.0005ZM8.01483 48.0005H12.0148V52.0005H8.01483V48.0005ZM6.01483 48.0005C6.01483 46.896 6.91028 46.0005 8.01483 46.0005H12.0148C13.1194 46.0005 14.0149 46.896 14.0149 48.0005V52.0005C14.0149 53.105 13.1194 54.0005 12.0148 54.0005H8.01483C6.91028 54.0005 6.01483 53.105 6.01483 52.0005V48.0005Z" fill="#5528FF"/>
</svg>
